{
  "accessors": [
    {
      "bufferView": 2,
      "componentType": 5126,
      "count": 9426,
      "max": [
        0.9935951828956604,
        0.9997364282608032,
        0.08087127655744553
      ],
      "min": [
        -0.9935951828956604,
        -0.9935951828956604,
        -0.08087127655744553
      ],
      "type": "VEC3"
    },
    {
      "bufferView": 2,
      "byteOffset": 113112,
      "componentType": 5126,
      "count": 9426,
      "max": [
        1.0,
        1.0,
        1.0
      ],
      "min": [
        -1.0,
        -1.0,
        -1.0
      ],
      "type": "VEC3"
    },
    {
      "bufferView": 1,
      "componentType": 5126,
      "count": 9426,
      "max": [
        0.0,
        0.0
      ],
      "min": [
        0.0,
        0.0
      ],
      "type": "VEC2"
    },
    {
      "bufferView": 0,
      "componentType": 5125,
      "count": 72840,
      "type": "SCALAR"
    },
    {
      "bufferView": 2,
      "byteOffset": 226224,
      "componentType": 5126,
      "count": 3657,
      "max": [
        0.5520119667053223,
        0.9997364282608032,
        0.08087127655744553
      ],
      "min": [
        -0.17082898318767548,
        -7.867815293138847e-05,
        -0.08087127655744553
      ],
      "type": "VEC3"
    },
    {
      "bufferView": 2,
      "byteOffset": 270108,
      "componentType": 5126,
      "count": 3657,
      "max": [
        1.0,
        1.0,
        1.0
      ],
      "min": [
        -1.0,
        -1.0,
        -1.0
      ],
      "type": "VEC3"
    },
    {
      "bufferView": 1,
      "byteOffset": 75408,
      "componentType": 5126,
      "count": 3657,
      "max": [
        0.0,
        0.0
      ],
      "min": [
        0.0,
        0.0
      ],
      "type": "VEC2"
    },
    {
      "bufferView": 0,
      "byteOffset": 291360,
      "componentType": 5125,
      "count": 20484,
      "type": "SCALAR"
    },
    {
      "bufferView": 2,
      "byteOffset": 313992,
      "componentType": 5126,
      "count": 1780,
      "max": [
        0.7025779485702515,
        -0.42736339569091797,
        0.08087126910686493
      ],
      "min": [
        -0.5520119667053223,
        -0.9935951828956604,
        -0.08087126910686493
      ],
      "type": "VEC3"
    },
    {
      "bufferView": 2,
      "byteOffset": 335352,
      "componentType": 5126,
      "count": 1780,
      "max": [
        0.9999772906303406,
        1.0,
        1.0
      ],
      "min": [
        -0.9971470832824707,
        -1.0,
        -1.0
      ],
      "type": "VEC3"
    },
    {
      "bufferView": 1,
      "byteOffset": 104664,
      "componentType": 5126,
      "count": 1780,
      "max": [
        0.0,
        0.0
      ],
      "min": [
        0.0,
        0.0
      ],
      "type": "VEC2"
    },
    {
      "bufferView": 0,
      "byteOffset": 373296,
      "componentType": 5125,
      "count": 9600,
      "type": "SCALAR"
    },
    {
      "bufferView": 2,
      "byteOffset": 356712,
      "componentType": 5126,
      "count": 2220,
      "max": [
        0.9935951828956604,
        0.8261442184448242,
        0.08087126910686493
      ],
      "min": [
        0.33173370361328125,
        -0.7025779485702515,
        -0.08087126910686493
      ],
      "type": "VEC3"
    },
    {
      "bufferView": 2,
      "byteOffset": 383352,
      "componentType": 5126,
      "count": 2220,
      "max": [
        1.0,
        0.9884624481201172,
        1.0
      ],
      "min": [
        -1.0,
        -0.9816759824752808,
        -1.0
      ],
      "type": "VEC3"
    },
    {
      "bufferView": 1,
      "byteOffset": 118904,
      "componentType": 5126,
      "count": 2220,
      "max": [
        0.0,
        0.0
      ],
      "min": [
        0.0,
        0.0
      ],
      "type": "VEC2"
    },
    {
      "bufferView": 0,
      "byteOffset": 411696,
      "componentType": 5125,
      "count": 12096,
      "type": "SCALAR"
    }
  ],
  "asset": {
    "extras": {
      "author": "LumiStudios (https://sketchfab.com/LumiStudios)",
      "license": "CC-BY-4.0 (http://creativecommons.org/licenses/by/4.0/)",
      "source": "https://sketchfab.com/3d-models/google-logo-8d1c2cf4d6de4b11a78a04ccc5151025",
      "title": "Google Logo"
    },
    "generator": "Sketchfab-14.5.0",
    "version": "2.0"
  },
  "bufferViews": [
    {
      "buffer": 0,
      "byteLength": 460080,
      "name": "floatBufferViews",
      "target": 34963
    },
    {
      "buffer": 0,
      "byteLength": 136664,
      "byteOffset": 460080,
      "byteStride": 8,
      "name": "floatBufferViews",
      "target": 34962
    },
    {
      "buffer": 0,
      "byteLength": 409992,
      "byteOffset": 596744,
      "byteStride": 12,
      "name": "floatBufferViews",
      "target": 34962
    }
  ],
  "buffers": [
    {
      "byteLength": 1006736,
      "uri": "scene.bin"
    }
  ],
  "materials": [
    {
      "doubleSided": true,
      "name": "material",
      "pbrMetallicRoughness": {
        "baseColorFactor": [
          0.83077,
          0.0528604,
          0.0318961,
          1.0
        ],
        "metallicFactor": 0.0
      }
    },
    {
      "doubleSided": true,
      "name": "Blue",
      "pbrMetallicRoughness": {
        "baseColorFactor": [
          0.0512687,
          0.238397,
          0.904661,
          1.0
        ],
        "metallicFactor": 0.0
      }
    },
    {
      "doubleSided": true,
      "name": "Yellow",
      "pbrMetallicRoughness": {
        "baseColorFactor": [
          0.964686,
          0.508881,
          0.000303698,
          1.0
        ],
        "metallicFactor": 0.0
      }
    },
    {
      "doubleSided": true,
      "name": "Green",
      "pbrMetallicRoughness": {
        "baseColorFactor": [
          0.0295565,
          0.396755,
          0.0843763,
          1.0
        ],
        "metallicFactor": 0.0
      }
    }
  ],
  "meshes": [
    {
      "name": "Circle_Red_0",
      "primitives": [
        {
          "attributes": {
            "NORMAL": 1,
            "POSITION": 0,
            "TEXCOORD_0": 2
          },
          "indices": 3,
          "material": 0,
          "mode": 4
        }
      ]
    },
    {
      "name": "Circle_Blue_0",
      "primitives": [
        {
          "attributes": {
            "NORMAL": 5,
            "POSITION": 4,
            "TEXCOORD_0": 6
          },
          "indices": 7,
          "material": 1,
          "mode": 4
        }
      ]
    },
    {
      "name": "Circle_Yellow_0",
      "primitives": [
        {
          "attributes": {
            "NORMAL": 9,
            "POSITION": 8,
            "TEXCOORD_0": 10
          },
          "indices": 11,
          "material": 2,
          "mode": 4
        }
      ]
    },
    {
      "name": "Circle_Green_0",
      "primitives": [
        {
          "attributes": {
            "NORMAL": 13,
            "POSITION": 12,
            "TEXCOORD_0": 14
          },
          "indices": 15,
          "material": 3,
          "mode": 4
        }
      ]
    }
  ],
  "nodes": [
    {
      "children": [
        1
      ],
      "matrix": [
        0.0009150072000920773,
        0.0008891709148881599,
        0.9999991655349731,
        0.0,
        0.9999995827674866,
        3.175345572204906e-17,
        -0.0009150076075457036,
        0.0,
        -8.135981488521793e-07,
        0.9999995827674866,
        -0.0008891705656421944,
        0.0,
        0.0,
        0.0,
        0.0,
        1.0
      ],
      "name": "Sketchfab_model"
    },
    {
      "children": [
        2
      ],
      "matrix": [
        0.009999999776482582,
        0.0,
        0.0,
        0.0,
        0.0,
        0.0,
        0.009999999776482582,
        0.0,
        0.0,
        -0.009999999776482582,
        0.0,
        0.0,
        0.0,
        0.0,
        0.0,
        1.0
      ],
      "name": "c4f98b01dc6744e3ae05a69592b92842.fbx"
    },
    {
      "children": [
        3
      ],
      "name": "RootNode"
    },
    {
      "children": [
        4,
        5,
        6,
        7
      ],
      "matrix": [
        -5.405058850267927e-06,
        -123.65332794189442,
        -1.3728277175261653e-14,
        0.0,
        -5.4050588571320654e-06,
        2.4710898915470975e-13,
        -123.65332794189442,
        0.0,
        123.6533279418943,
        -5.4050588571320654e-06,
        -5.405058850267927e-06,
        0.0,
        0.0,
        0.0,
        0.0,
        1.0
      ],
      "name": "Circle"
    },
    {
      "mesh": 0,
      "name": "Circle_Red_0"
    },
    {
      "mesh": 1,
      "name": "Circle_Blue_0"
    },
    {
      "mesh": 2,
      "name": "Circle_Yellow_0"
    },
    {
      "mesh": 3,
      "name": "Circle_Green_0"
    }
  ],
  "scene": 0,
  "scenes": [
    {
      "name": "Sketchfab_Scene",
      "nodes": [
        0
      ]
    }
  ]
}
